PathFileType	4	(X/Y/Z)	
DataRate	CameraRate	NumFrames	NumMarkers	Units	OrigDataRate	OrigDataStartFrame	OrigNumFrames
100	100	4	41	m	100	0	110
Frame#	Time	LELB			LSHO			RSHO			LUPA			LBHD			RUPA			RBHD			C7			RWRB			LWRB			RELB			RBAK			LANK			LKNE			LPSI			T10			LBTO			RPSI			RKNE			LTIB			RTIB			LTHI			RBTO			RTOE			RANK			RHEE			RTHI			LHEE			LFRM			LWRA			RFRM			LFIN			RFIN			RFHD			RWRA			RASI			LTOE			STRN			CLAV			LASI			LFHD			
		X1	Y1	Z1	X2	Y2	Z2	X3	Y3	Z3	X4	Y4	Z4	X5	Y5	Z5	X6	Y6	Z6	X7	Y7	Z7	X8	Y8	Z8	X9	Y9	Z9	X10	Y10	Z10	X11	Y11	Z11	X12	Y12	Z12	X13	Y13	Z13	X14	Y14	Z14	X15	Y15	Z15	X16	Y16	Z16	X17	Y17	Z17	X18	Y18	Z18	X19	Y19	Z19	X20	Y20	Z20	X21	Y21	Z21	X22	Y22	Z22	X23	Y23	Z23	X24	Y24	Z24	X25	Y25	Z25	X26	Y26	Z26	X27	Y27	Z27	X28	Y28	Z28	X29	Y29	Z29	X30	Y30	Z30	X31	Y31	Z31	X32	Y32	Z32	X33	Y33	Z33	X34	Y34	Z34	X35	Y35	Z35	X36	Y36	Z36	X37	Y37	Z37	X38	Y38	Z38	X39	Y39	Z39	X40	Y40	Z40	X41	Y41	Z41	X42	Y42	Z42	X43	Y43	Z43	

1	0	0.535911743164063	1.14471203613281	-1.171232421875	0.455058471679687	1.48430078125	-1.17153564453125	0.0753414459228516	1.48882495117187	-1.1661025390625	0.499761627197266	1.34041137695312	-1.17716027832031	0.345091064453125	1.62418615722656	-1.17747631835938	0.00195190095901489	1.22475756835937	-1.14816967773438	0.193485931396484	1.63278405761719	-1.17813500976563	0.260096466064453	1.5279833984375	-1.22977685546875	0.0177175445556641	0.871516845703125	-1.046943359375	0.545243225097656	0.864261901855469	-1.17442797851563	-0.0138683128356934	1.13196203613281	-1.12707299804687	0.115505332946777	1.42943481445313	-1.26475	0.364277130126953	0.0692663650512696	-0.861938781738281	0.406484497070313	0.513320251464844	-0.999531555175781	0.294470458984375	1.06476110839844	-1.28495532226562	0.271893493652344	1.2489169921875	-1.30570764160156	0.334192626953125	0.113307884216309	-0.652689697265625	0.228335983276367	1.05982543945313	-1.27584326171875	0.141423324584961	0.495495452880859	-1.30779187011719	0.411294952392578	0.362261840820313	-0.948948974609375	0.140711288452148	0.355635467529297	-1.39182824707031	0.431703399658203	0.667667175292969	-1.04341772460937	0.220198516845703	0.0293753471374513	-1.33039318847656	0.201110702514648	0.033240650177002	-1.38846655273438	0.204331405639648	0.104389068603516	-1.52687927246094	0.252916870117187	0.0928149642944337	-1.59188061523437	0.117271629333496	0.642973327636719	-1.23232043457031	0.326407196044922	0.0169626598358155	-0.910603515625	0.537250854492187	0.899984619140625	-1.13018371582031	0.490802612304688	0.865056884765625	-1.11932873535156	0.0136059741973877	0.928043090820313	-1.02980639648438	0.534192810058594	0.787468566894531	-1.08708154296875	0.0374341239929199	0.811725708007813	-0.942987854003906	0.206660125732422	1.70578918457031	-1.04440087890625	0.0734231948852539	0.897657104492188	-0.997682250976562	0.130693496704102	1.01684375	-1.09597839355469	0.355953552246094	0.0936561431884766	-0.708058898925781	0.275155120849609	1.25804333496094	-1.06541918945313	0.268022277832031	1.3907412109375	-1.08527734375	0.3946875	1.02704919433594	-1.11184033203125	0.332778381347656	1.69826123046875	-1.0395205078125
2	0.01	0.536646240234375	1.14361279296875	-1.16884049595824	0.456965362548828	1.48364086914063	-1.16968424595824	0.0770380706787109	1.48869714355469	-1.16448698033324	0.501313842773437	1.33965380859375	-1.17531290806762	0.347041778564453	1.62386145019531	-1.17579484166137	0.0035044002532959	1.22461743164063	-1.14716068638793	0.195505752563477	1.63259484863281	-1.17667667759887	0.262025848388672	1.52756921386719	-1.22832303990355	0.0182133045196533	0.871023132324219	-1.04672562779418	0.545928161621094	0.863208251953125	-1.17354728306762	-0.0124936647415161	1.13177758789063	-1.12621085728637	0.117300224304199	1.42905334472656	-1.26297306431762	0.362694580078125	0.0693528671264649	-0.869871990098866	0.406616729736328	0.512514770507813	-0.994459514512928	0.294977203369141	1.06418591308594	-1.28146097935668	0.273469055175781	1.24821423339844	-1.30289603795043	0.331523803710937	0.0982690811157227	-0.655218242540272	0.229194519042969	1.05919763183594	-1.27239603795043	0.140330307006836	0.495115814208984	-1.30439054478637	0.408816925048828	0.359477844238281	-0.949491374864491	0.139303161621094	0.357511138916016	-1.39211136998168	0.430746826171875	0.667848999023438	-1.03775663365355	0.220261016845703	0.02937970161438	-1.34238383091918	0.200974868774414	0.0330227508544923	-1.40003495396605	0.202547866821289	0.110265922546387	-1.53478165806762	0.251707855224609	0.101347496032715	-1.59978629673949	0.117020431518555	0.642411376953125	-1.22877457798949	0.325879669189453	0.0204688014984131	-0.919930583848866	0.53791162109375	0.898615783691406	-1.12909562291137	0.49133984375	0.863708435058594	-1.11823331822387	0.0141819276809692	0.927474914550781	-1.02946158970824	0.534910705566406	0.7857001953125	-1.08679862584105	0.0374941253662109	0.810792663574219	-0.943012493028553	0.208581390380859	1.70587915039062	-1.04310331334105	0.073835823059082	0.896855651855469	-0.997196697130116	0.131464462280273	1.01633868408203	-1.09254484166137	0.35372705078125	0.0833099822998047	-0.712443340196522	0.276565521240234	1.25820422363281	-1.06264213170043	0.269615814208984	1.39076037597656	-1.08306351841918	0.395543670654297	1.02730419921875	-1.10780070103637	0.3348046875	1.69828125	-1.0381350516223
3	0.02	0.537535217285156	1.14288146972656	-1.16637972238523	0.458880798339844	1.48335327148438	-1.16782772043211	0.0787069396972656	1.4889755859375	-1.16284273508054	0.502803955078125	1.33914147949219	-1.17329756906492	0.349103912353516	1.62411206054688	-1.17400106027586	0.00512393856048584	1.22484375	-1.14620235422117	0.197627380371094	1.63295825195312	-1.17514852121336	0.263980590820312	1.52799755859375	-1.22658663156492	0.0186115398406982	0.870700866699219	-1.0468652570532	0.546520935058594	0.862521789550781	-1.17253841379148	-0.011052960395813	1.13194360351562	-1.12543086984617	0.119260116577148	1.42928674316406	-1.26132576730711	0.363107086181641	0.0722801513671876	-0.87302004220945	0.406533325195312	0.513083435058594	-0.990928367404763	0.295320037841797	1.06464978027344	-1.27807393625242	0.274928405761719	1.24840832519531	-1.30017317941648	0.3305419921875	0.0906158676147461	-0.659791892795388	0.230012191772461	1.0591650390625	-1.26891963937742	0.139540069580078	0.494935119628906	-1.30014754465086	0.406306732177734	0.358020385742188	-0.950275169162575	0.138197418212891	0.359438446044922	-1.39171480539304	0.430223693847656	0.668697692871094	-1.03386141183836	0.22022233581543	0.0294857559204102	-1.35441536691648	0.200759231567383	0.0329799232482911	-1.41147762277586	0.200662322998047	0.116753227233887	-1.54183492258054	0.250014617919922	0.111288833618164	-1.60649507883054	0.117224739074707	0.641565246582031	-1.22419698312742	0.326903594970703	0.0240172443389893	-0.927373801975075	0.538556945800781	0.897617797851563	-1.12786544015867	0.491901000976563	0.862708801269531	-1.11703279855711	0.014733286857605	0.927102905273438	-1.02935164621336	0.535544616699219	0.784358093261719	-1.08634419992429	0.0374562530517578	0.810019348144531	-0.943475974826638	0.210514709472656	1.70666528320313	-1.04178047922117	0.074197151184082	0.896144836425781	-0.996980369357888	0.132235763549805	1.01616931152344	-1.08907698801023	0.351955322265625	0.0775962371826172	-0.716521751193825	0.278011932373047	1.25902221679687	-1.05977181222898	0.271216125488281	1.3913544921875	-1.08084017160398	0.396948669433594	1.02774169921875	-1.10397042062742	0.337034240722656	1.69909716796875	-1.03684175851804
4	0.03	0.538430969238281	1.14273815917969	-1.16388782088253	0.460730895996094	1.48354602050781	-1.16598791853878	0.0803426742553711	1.48980883789063	-1.16115259139035	0.503980926513672	1.33895385742188	-1.17101941267941	0.351199615478516	1.62507458496094	-1.17212915389035	0.00683322381973267	1.22558972167969	-1.14526172224972	0.199776000976563	1.63403466796875	-1.17356238142941	0.266011260986328	1.52921618652344	-1.22441553084347	0.0189909210205078	0.870731811523438	-1.04745080916378	0.547053344726563	0.862349426269531	-1.17137622420285	-0.00950389671325684	1.13261779785156	-1.12465124861691	0.121350379943848	1.43020043945313	-1.25976428572628	0.364009399414063	0.0718005523681641	-0.876533816976285	0.407364868164063	0.515779296875	-0.989222232503629	0.296015441894531	1.06594787597656	-1.27480945174191	0.276123596191406	1.24924047851563	-1.29746692244503	0.323962371826172	0.0849829635620118	-0.665414676351285	0.23047802734375	1.06006286621094	-1.26553747908566	0.138809234619141	0.495134490966797	-1.29468957869503	0.407476409912109	0.359990600585938	-0.94897888533566	0.137145721435547	0.362082153320313	-1.39035669295285	0.430065521240234	0.670295959472656	-1.03130853621457	0.220143142700195	0.0295899295806886	-1.36647461287472	0.200637847900391	0.0333447837829591	-1.42275061385128	0.198333282470703	0.124785614013672	-1.54808533064816	0.248295364379883	0.122547203063965	-1.6117185093591	0.117188621520996	0.640840026855469	-1.21864319197628	0.32868505859375	0.0261219482421876	-0.935479556722379	0.53916845703125	0.897144348144531	-1.12648840682003	0.492480133056641	0.862188049316406	-1.11575439803097	0.0153096876144409	0.927079833984375	-1.02956244246457	0.5361162109375	0.783567260742188	-1.08573974959347	0.037291389465332	0.809510864257812	-0.944427859945035	0.212351593017578	1.70818579101563	-1.04037604109738	0.0744808654785156	0.895704895019531	-0.99714001814816	0.133018203735352	1.01656512451172	-1.08564123885128	0.348807922363281	0.0725507049560547	-0.72205652205441	0.279417724609375	1.26050524902344	-1.05700024764035	0.272850341796875	1.39262927246094	-1.07860669295285	0.397955383300781	1.02902563476563	-1.1002888218591	0.339220275878906	1.70059497070312	-1.03544610945675
